<?xml version="1.0" encoding="iso-8859-1"?>
<!-- Generator: Adobe Illustrator 19.0.0, SVG Export Plug-In . SVG Version: 6.00 Build 0)  -->
<svg version="1.1" id="Layer_1" xmlns="http://www.w3.org/2000/svg" xmlns:xlink="http://www.w3.org/1999/xlink" x="0px" y="0px"
	 viewBox="0 0 512.853 512.853" style="enable-background:new 0 0 512.853 512.853;" xml:space="preserve">
<g transform="translate(1)">
	<g>
		<g>
			<path d="M481.987,387.115c-11.29-7.945-24.424-11.986-37.595-12.245c-45.939-30.142-76.124-52.834-93.818-70.528l-41.178-41.179
				c4.369-1.43,8.232-2.341,10.458-2.341c4.254,0,6.81-1.698,8.517-5.091L501.613,83.328c13.653-13.653,13.653-35.84,0-49.493
				l-23.04-23.04c-13.653-13.653-35.84-13.653-49.493,0L253.293,185.728c-2.557,2.557-3.198,6.072-1.924,9.11
				c-0.305,1.882-0.921,4.249-1.749,6.844l-42.407-42.407c-31.494-31.494-53.646-61.291-70.695-94.47
				c-0.895-16.789-7.632-32.497-19.758-44.623C102.253,5.675,81.773-1.152,61.293,0.555c-2.56,0.853-5.12,2.56-5.973,4.267
				c-1.707,2.56-1.707,5.973,0,8.533l23.893,42.667c-5.12,11.093-17.067,17.92-29.013,17.067l-24.747-40.96
				c-0.853-2.56-4.267-4.267-6.827-4.267c-2.56-0.853-5.12,0.853-6.827,3.413c-20.48,30.72-12.8,71.68,17.92,93.013
				c10.584,7.56,22.508,11.764,34.584,12.626c0.135,0.057,0.262,0.127,0.402,0.174c33.28,17.067,63.147,39.253,93.867,69.973
				l36.693,36.693l-13.653,13.653c-3.413,3.413-3.413,8.533,0,11.947l12.373,12.373L45.08,430.635l-37.547,25.6
				c-1.707,1.707-3.413,3.413-3.413,5.973L-1,503.168c0,2.56,0.853,5.12,2.56,6.827c1.707,1.707,3.413,2.56,5.973,2.56
				c0.853,0,0.853,0,0.853,0l40.96-5.12c2.56,0,4.267-1.707,5.973-3.413l24.328-35.68c0.459-0.297,0.89-0.63,1.272-1.013
				l148.924-149.742l12.356,12.356c1.707,1.707,3.413,2.56,5.973,2.56s5.12-1.707,6.827-2.56l12.986-13.467l35.654,35.654
				c17.903,17.903,40.917,49.435,71.594,95.444c1.1,16.423,7.821,31.757,19.713,43.649c12.8,12.8,29.867,19.627,47.787,19.627
				c2.56,0,5.12,0,6.827,0c2.56,0,5.12-1.707,6.827-4.267s1.707-5.973,0-8.533l-24.747-41.813
				c5.973-11.093,17.067-17.92,29.867-17.067l23.893,40.96c0.853,2.56,4.267,4.267,6.827,4.267c3.413-0.853,5.973-1.707,7.68-4.267
				C520.387,449.408,511.853,408.448,481.987,387.115z M289.987,251.435c-5.973,2.56-13.653,6.827-18.773,11.947
				c-4.14,4.14-6.462,9.687-7.669,15.372l-31.585-31.585c5.973-0.853,11.947-3.413,16.213-7.68
				c5.973-5.12,11.947-17.92,16.213-29.867l37.547,37.547c-2.812,1.004-5.669,2.154-8.464,3.386
				C292.331,250.571,291.159,250.849,289.987,251.435z M441.027,22.742c6.827-6.827,17.92-6.827,24.747,0l23.04,23.04
				c6.827,6.827,6.827,17.92,0,24.747L319.428,239.063l-47.787-47.787L441.027,22.742z M19.48,54.315l17.92,30.72
				c1.707,2.56,4.267,4.267,6.827,4.267h4.267c19.627,0.853,37.547-9.387,46.08-26.453l1.707-4.267c1.707-2.56,1.707-5.12,0-7.68
				L77.507,18.475c10.24,1.707,19.627,6.827,27.307,14.507c8.798,9.531,14.431,21.585,14.764,34.533
				c-0.165,0.657-0.258,1.364-0.258,2.161c0,3.952-0.477,7.807-1.36,11.523c-3.219,12.356-10.938,23.129-21.68,30.291
				c-17.067,11.093-40.107,11.093-57.173-0.853C21.187,97.835,13.507,74.795,19.48,54.315z M92.867,132.822
				c4.267-1.707,9.387-4.267,13.653-6.827c12.8-8.533,21.333-19.627,26.453-33.28c16.213,27.307,36.693,52.907,62.293,78.507
				l47.294,47.294c-1.863,3.512-3.776,6.469-5.48,8.173c-5.12,4.267-17.92,3.413-23.893,3.413c-2.061,0-4.116,0.634-5.802,1.878
				l-36.012-36.012C144.92,169.515,120.173,149.035,92.867,132.822z M44.227,490.368l-27.307,3.413l3.413-26.453l28.504-19.282
				l14.665,14.665L44.227,490.368z M74.093,449.408l-11.947-11.947l144.213-143.36l11.947,11.947L74.093,449.408z M248.173,311.168
				l-47.787-47.787l11.947-11.947l47.487,47.487c-0.283,0.425-0.521,0.865-0.718,1.317L248.173,311.168z M280.428,305.023
				c1.245-1.685,1.878-3.74,1.878-5.802v0l0,0c-0.32-2.56-0.64-5.84-0.645-9.21c-0.008-5.617,0.858-11.483,4.058-14.683
				c1.117-1.304,3.048-2.729,5.454-4.161c0.02-0.012,0.039-0.023,0.059-0.035c0.962-0.571,2-1.142,3.091-1.707l46.863,46.863
				c15.328,16.18,41.707,36.61,79.979,62.137c-5.585,1.879-10.964,4.493-15.979,7.837c-12.57,8.799-21.883,20.845-26.608,34.76
				c-4.92-7.213-9.648-14.012-14.196-20.41l11.79-11.79c3.413-3.413,3.413-8.533,0-11.947c-3.413-3.413-8.533-3.413-11.947,0
				l-9.875,9.875c-3.55-4.81-6.978-9.347-10.285-13.608l8.213-8.213c3.413-3.413,3.413-8.533,0-11.947
				c-3.413-3.413-8.533-3.413-11.947,0l-6.901,6.901c-6.123-7.358-11.779-13.635-16.992-18.848L280.428,305.023z M491.373,457.088
				l-17.92-30.72c-1.707-2.56-4.267-4.267-6.827-4.267h-4.267c-19.627-1.707-37.547,9.387-46.08,26.453l-1.707,4.267
				c-1.707,2.56-1.707,5.12,0,7.68l18.773,32.427c-10.24-1.707-19.627-6.827-27.307-14.507c-8.631-9.351-14.21-21.13-14.735-33.797
				c0.146-0.624,0.228-1.294,0.228-2.043c0-9.591,2.696-18.643,7.328-26.399c0.006-0.01,0.011-0.02,0.017-0.029
				c0.022-0.037,0.047-0.072,0.07-0.109c3.941-6.364,9.253-11.881,15.625-16.129c1.019-0.714,2.052-1.375,3.095-1.993
				c6.664-3.497,14.31-5.687,22.505-5.687c1.449,0,2.62-0.283,3.677-0.83c9.865,0.238,19.673,3.607,27.896,9.364
				C489.667,413.568,497.347,436.608,491.373,457.088z"/>
			<path d="M308.76,202.795c1.707,1.707,3.413,2.56,5.973,2.56s4.267-0.853,5.973-2.56L465.773,57.728
				c3.413-3.413,3.413-8.533,0-11.947s-8.533-3.413-11.947,0L308.76,190.848C305.347,194.262,305.347,199.382,308.76,202.795z"/>
		</g>
	</g>
</g>
<g>
</g>
<g>
</g>
<g>
</g>
<g>
</g>
<g>
</g>
<g>
</g>
<g>
</g>
<g>
</g>
<g>
</g>
<g>
</g>
<g>
</g>
<g>
</g>
<g>
</g>
<g>
</g>
<g>
</g>
</svg>
