<?xml version="1.0" ?><svg width="1000px" height="1000px" viewBox="0 0 1000 1000" id="Layer_2" style="enable-background:new 0 0 1000 1000;" version="1.1" xml:space="preserve" xmlns="http://www.w3.org/2000/svg" xmlns:xlink="http://www.w3.org/1999/xlink"><g><rect height="56.89" style="fill:#231F20;" width="114.43" x="252.01" y="345.06"/><rect height="56.89" style="fill:#231F20;" width="114.42" x="442.79" y="345.06"/><rect height="56.89" style="fill:#231F20;" width="114.43" x="633.56" y="345.06"/><path d="M186.86,645.77c0,16.56,13.43,30,30,30h10.64V527.84c0-20.82,16.94-37.76,37.76-37.76h18.7   c7.04,0,12.77-5.73,12.77-12.76v-50.37h-53.04c-9.21,0-16.68-7.47-16.68-16.67v-73.55c0-9.21,7.47-16.67,16.68-16.67h131.07   c9.21,0,16.68,7.46,16.68,16.67v73.55c0,9.2-7.47,16.67-16.68,16.67h-53.03v50.37c0,20.82-16.94,37.76-37.77,37.76h-18.7   c-7.04,0-12.76,5.72-12.76,12.76v147.93h235V426.95h-53.04c-9.21,0-16.67-7.47-16.67-16.67v-73.55c0-9.21,7.46-16.67,16.67-16.67   h131.08c9.21,0,16.67,7.46,16.67,16.67v73.55c0,9.2-7.46,16.67-16.67,16.67H512.5v248.82h235V527.84c0-7.04-5.72-12.76-12.76-12.76   h-18.7c-20.83,0-37.77-16.94-37.77-37.76v-50.37h-53.03c-9.21,0-16.68-7.47-16.68-16.67v-73.55c0-9.21,7.47-16.67,16.68-16.67   h131.07c9.21,0,16.68,7.46,16.68,16.67v73.55c0,9.2-7.47,16.67-16.68,16.67h-53.04v50.37c0,7.03,5.73,12.76,12.77,12.76h18.7   c20.82,0,37.76,16.94,37.76,37.76v147.93h10.64c16.57,0,30-13.44,30-30V279.2H186.86V645.77z M611.78,632.59   c-2.26,2.26-5.38,3.66-8.84,3.66h-37.22c-6.9,0-12.5-5.59-12.5-12.5c0-3.45,1.4-6.57,3.66-8.84c2.26-2.26,5.39-3.66,8.84-3.66   h37.22c6.91,0,12.5,5.6,12.5,12.5C615.44,627.2,614.04,630.33,611.78,632.59z M705.78,632.59c-2.26,2.26-5.38,3.66-8.84,3.66   h-37.22c-6.9,0-12.5-5.59-12.5-12.5c0-3.45,1.4-6.57,3.66-8.84c2.26-2.26,5.39-3.66,8.84-3.66h37.22c6.91,0,12.5,5.6,12.5,12.5   C709.44,627.2,708.04,630.33,705.78,632.59z M696.94,561.25c6.91,0,12.5,5.6,12.5,12.5c0,3.45-1.4,6.58-3.66,8.84   c-2.26,2.26-5.38,3.66-8.84,3.66H565.72c-6.9,0-12.5-5.59-12.5-12.5c0-3.45,1.4-6.57,3.66-8.84c2.26-2.26,5.39-3.66,8.84-3.66   H696.94z M349.12,632.59c-2.26,2.26-5.39,3.66-8.84,3.66h-37.22c-6.91,0-12.5-5.59-12.5-12.5c0-3.45,1.4-6.57,3.66-8.84   c2.26-2.26,5.38-3.66,8.84-3.66h37.22c6.9,0,12.5,5.6,12.5,12.5C352.78,627.2,351.38,630.33,349.12,632.59z M443.12,632.59   c-2.26,2.26-5.39,3.66-8.84,3.66h-37.22c-6.91,0-12.5-5.59-12.5-12.5c0-3.45,1.4-6.57,3.66-8.84c2.26-2.26,5.38-3.66,8.84-3.66   h37.22c6.9,0,12.5,5.6,12.5,12.5C446.78,627.2,445.38,630.33,443.12,632.59z M434.28,561.25c6.9,0,12.5,5.6,12.5,12.5   c0,3.45-1.4,6.58-3.66,8.84c-2.26,2.26-5.39,3.66-8.84,3.66H303.06c-6.91,0-12.5-5.59-12.5-12.5c0-3.45,1.4-6.57,3.66-8.84   c2.26-2.26,5.38-3.66,8.84-3.66H434.28z" style="fill:#231F20;"/><path d="M783.14,152.232H216.86c-16.57,0-30,13.44-30,30v71.97h626.28v-71.97   C813.14,165.672,799.71,152.232,783.14,152.232z M599.629,215.717h-28c-6.875,0-12.5-5.625-12.5-12.5s5.625-12.5,12.5-12.5h28   c6.875,0,12.5,5.625,12.5,12.5S606.504,215.717,599.629,215.717z M683.129,215.717h-28c-6.875,0-12.5-5.625-12.5-12.5   s5.625-12.5,12.5-12.5h28c6.875,0,12.5,5.625,12.5,12.5S690.004,215.717,683.129,215.717z M766.629,215.717h-28   c-6.875,0-12.5-5.625-12.5-12.5s5.625-12.5,12.5-12.5h28c6.875,0,12.5,5.625,12.5,12.5S773.504,215.717,766.629,215.717z" style="fill:#231F20;"/><path d="M264.649,788.579H252.5V700.78h-25v87.799h-12.149c-6.349,0-10.317,6.873-7.143,12.371   l12.325,21.347l12.325,21.347c3.175,5.498,11.11,5.498,14.285,0l12.325-21.347l12.325-21.347   C274.966,795.452,270.999,788.579,264.649,788.579z" style="fill:#231F20;"/><path d="M524.793,788.579H512.5V700.78h-25v87.799h-12.006c-6.349,0-10.317,6.873-7.143,12.371   l12.325,21.347l12.325,21.347c3.174,5.498,11.11,5.498,14.285,0l12.325-21.347l12.325-21.347   C535.11,795.452,531.142,788.579,524.793,788.579z" style="fill:#231F20;"/><path d="M784.649,788.579H772.5V700.78h-25v87.799h-12.149c-6.349,0-10.317,6.873-7.143,12.371   l12.325,21.347l12.325,21.347c3.175,5.498,11.11,5.498,14.285,0l12.325-21.347l12.325-21.347   C794.966,795.452,790.998,788.579,784.649,788.579z" style="fill:#231F20;"/></g></svg>
